<mxfile host="app.diagrams.net" modified="2022-03-31T11:47:17.641Z" agent="5.0 (X11; Linux x86_64) AppleWebKit/537.36 (KHTML, like Gecko) Chrome/100.0.4896.60 Safari/537.36" etag="JDrgGfusD20ncdJvUWIK" version="17.2.6" type="github">
  <diagram id="GRbOUUbrvPb2mJbzB6UB" name="Page-1">
    <mxGraphModel dx="1350" dy="777" grid="1" gridSize="10" guides="1" tooltips="1" connect="1" arrows="1" fold="1" page="1" pageScale="1" pageWidth="1169" pageHeight="827" math="0" shadow="0">
      <root>
        <mxCell id="0" />
        <mxCell id="1" parent="0" />
        <mxCell id="EVAwWGZiPoM698nlrgGL-1" value="" style="rounded=1;whiteSpace=wrap;html=1;fillColor=#CCCCCC;strokeColor=#CCCCCC;" vertex="1" parent="1">
          <mxGeometry x="50" y="80" width="1050" height="670" as="geometry" />
        </mxCell>
        <mxCell id="EVAwWGZiPoM698nlrgGL-2" value="ProfilPage.jsx" style="text;html=1;align=center;verticalAlign=middle;resizable=0;points=[];autosize=1;strokeColor=none;fillColor=none;fontSize=24;fontFamily=Helvetica;fontColor=default;" vertex="1" parent="1">
          <mxGeometry x="120" y="89" width="160" height="30" as="geometry" />
        </mxCell>
        <mxCell id="EVAwWGZiPoM698nlrgGL-13" style="edgeStyle=orthogonalEdgeStyle;rounded=0;orthogonalLoop=1;jettySize=auto;html=1;exitX=1;exitY=0.25;exitDx=0;exitDy=0;entryX=-0.023;entryY=0.057;entryDx=0;entryDy=0;entryPerimeter=0;strokeColor=#FF0000;" edge="1" parent="1" source="EVAwWGZiPoM698nlrgGL-3" target="EVAwWGZiPoM698nlrgGL-7">
          <mxGeometry relative="1" as="geometry" />
        </mxCell>
        <mxCell id="EVAwWGZiPoM698nlrgGL-3" value="" style="rounded=1;whiteSpace=wrap;html=1;fontFamily=Helvetica;fontSize=24;fontColor=default;strokeColor=default;fillColor=#E1D5E7;" vertex="1" parent="1">
          <mxGeometry x="80" y="119" width="960" height="590" as="geometry" />
        </mxCell>
        <mxCell id="EVAwWGZiPoM698nlrgGL-5" value="Main.jsx" style="text;html=1;align=center;verticalAlign=middle;resizable=0;points=[];autosize=1;strokeColor=none;fillColor=none;fontSize=24;fontFamily=Helvetica;fontColor=default;" vertex="1" parent="1">
          <mxGeometry x="120" y="140" width="100" height="30" as="geometry" />
        </mxCell>
        <mxCell id="EVAwWGZiPoM698nlrgGL-6" value="" style="shape=cylinder3;whiteSpace=wrap;html=1;boundedLbl=1;backgroundOutline=1;size=15;" vertex="1" parent="1">
          <mxGeometry x="1170" y="360" width="230" height="390" as="geometry" />
        </mxCell>
        <mxCell id="EVAwWGZiPoM698nlrgGL-24" style="edgeStyle=orthogonalEdgeStyle;rounded=0;orthogonalLoop=1;jettySize=auto;html=1;exitX=1.012;exitY=0.24;exitDx=0;exitDy=0;exitPerimeter=0;entryX=-0.042;entryY=0.242;entryDx=0;entryDy=0;entryPerimeter=0;strokeColor=#00FF00;" edge="1" parent="1" source="EVAwWGZiPoM698nlrgGL-7" target="EVAwWGZiPoM698nlrgGL-10">
          <mxGeometry relative="1" as="geometry" />
        </mxCell>
        <mxCell id="EVAwWGZiPoM698nlrgGL-7" value="" style="shape=cylinder3;whiteSpace=wrap;html=1;boundedLbl=1;backgroundOutline=1;size=15;" vertex="1" parent="1">
          <mxGeometry x="1440" y="80" width="170" height="670" as="geometry" />
        </mxCell>
        <mxCell id="EVAwWGZiPoM698nlrgGL-29" style="edgeStyle=orthogonalEdgeStyle;rounded=0;orthogonalLoop=1;jettySize=auto;html=1;exitX=0;exitY=0.75;exitDx=0;exitDy=0;entryX=1.012;entryY=0.749;entryDx=0;entryDy=0;entryPerimeter=0;strokeColor=#FFFF00;" edge="1" parent="1" source="EVAwWGZiPoM698nlrgGL-10" target="EVAwWGZiPoM698nlrgGL-7">
          <mxGeometry relative="1" as="geometry" />
        </mxCell>
        <mxCell id="EVAwWGZiPoM698nlrgGL-10" value="" style="rounded=0;whiteSpace=wrap;html=1;" vertex="1" parent="1">
          <mxGeometry x="1720" y="79" width="120" height="670" as="geometry" />
        </mxCell>
        <mxCell id="EVAwWGZiPoM698nlrgGL-11" value="Back-end" style="text;html=1;align=center;verticalAlign=middle;resizable=0;points=[];autosize=1;strokeColor=none;fillColor=none;fontSize=24;fontFamily=Helvetica;fontColor=default;" vertex="1" parent="1">
          <mxGeometry x="1720" y="400" width="120" height="30" as="geometry" />
        </mxCell>
        <mxCell id="EVAwWGZiPoM698nlrgGL-14" style="edgeStyle=orthogonalEdgeStyle;rounded=0;orthogonalLoop=1;jettySize=auto;html=1;exitX=1;exitY=0.25;exitDx=0;exitDy=0;entryX=-0.023;entryY=0.122;entryDx=0;entryDy=0;entryPerimeter=0;strokeColor=#FF8000;" edge="1" parent="1" source="EVAwWGZiPoM698nlrgGL-3" target="EVAwWGZiPoM698nlrgGL-7">
          <mxGeometry relative="1" as="geometry">
            <mxPoint x="1050" y="276.5" as="sourcePoint" />
            <mxPoint x="1447.0100000000002" y="128.19000000000005" as="targetPoint" />
          </mxGeometry>
        </mxCell>
        <mxCell id="EVAwWGZiPoM698nlrgGL-15" style="edgeStyle=orthogonalEdgeStyle;rounded=0;orthogonalLoop=1;jettySize=auto;html=1;entryX=-0.008;entryY=0.178;entryDx=0;entryDy=0;entryPerimeter=0;exitX=1;exitY=0.25;exitDx=0;exitDy=0;strokeColor=#FFFF00;" edge="1" parent="1" source="EVAwWGZiPoM698nlrgGL-3" target="EVAwWGZiPoM698nlrgGL-7">
          <mxGeometry relative="1" as="geometry">
            <mxPoint x="1040" y="270" as="sourcePoint" />
            <mxPoint x="1447.0100000000002" y="171.74" as="targetPoint" />
          </mxGeometry>
        </mxCell>
        <mxCell id="EVAwWGZiPoM698nlrgGL-16" style="edgeStyle=orthogonalEdgeStyle;rounded=0;orthogonalLoop=1;jettySize=auto;html=1;entryX=0;entryY=0.239;entryDx=0;entryDy=0;entryPerimeter=0;exitX=1;exitY=0.25;exitDx=0;exitDy=0;strokeColor=#00FF00;" edge="1" parent="1" source="EVAwWGZiPoM698nlrgGL-3" target="EVAwWGZiPoM698nlrgGL-7">
          <mxGeometry relative="1" as="geometry">
            <mxPoint x="1050" y="276.5" as="sourcePoint" />
            <mxPoint x="1448.96" y="209.26" as="targetPoint" />
          </mxGeometry>
        </mxCell>
        <mxCell id="EVAwWGZiPoM698nlrgGL-17" value="&lt;div style=&quot;color: rgb(171 , 178 , 191) ; background-color: rgb(35 , 39 , 46) ; font-family: &amp;#34;droid sans mono&amp;#34; , &amp;#34;monospace&amp;#34; , monospace ; font-size: 14px ; line-height: 19px&quot;&gt;&lt;span style=&quot;color: #e5c07b&quot;&gt;userData&lt;/span&gt;&lt;/div&gt;" style="text;html=1;align=center;verticalAlign=middle;resizable=0;points=[];autosize=1;strokeColor=none;fillColor=none;" vertex="1" parent="1">
          <mxGeometry x="1295" y="99" width="80" height="20" as="geometry" />
        </mxCell>
        <mxCell id="EVAwWGZiPoM698nlrgGL-18" value="&lt;div style=&quot;color: rgb(171 , 178 , 191) ; background-color: rgb(35 , 39 , 46) ; font-family: &amp;#34;droid sans mono&amp;#34; , &amp;#34;monospace&amp;#34; , monospace ; font-size: 14px ; line-height: 19px&quot;&gt;&lt;span style=&quot;color: #e5c07b&quot;&gt;activityData&lt;/span&gt;&lt;/div&gt;" style="text;html=1;align=center;verticalAlign=middle;resizable=0;points=[];autosize=1;strokeColor=none;fillColor=none;" vertex="1" parent="1">
          <mxGeometry x="1275" y="140" width="120" height="20" as="geometry" />
        </mxCell>
        <mxCell id="EVAwWGZiPoM698nlrgGL-21" value="&lt;div style=&quot;color: rgb(171 , 178 , 191) ; background-color: rgb(35 , 39 , 46) ; font-family: &amp;#34;droid sans mono&amp;#34; , &amp;#34;monospace&amp;#34; , monospace ; font-size: 14px ; line-height: 19px&quot;&gt;&lt;span style=&quot;color: #e5c07b&quot;&gt;averageSessionData&lt;/span&gt;&lt;/div&gt;" style="text;html=1;align=center;verticalAlign=middle;resizable=0;points=[];autosize=1;strokeColor=none;fillColor=none;" vertex="1" parent="1">
          <mxGeometry x="1250" y="180" width="170" height="20" as="geometry" />
        </mxCell>
        <mxCell id="EVAwWGZiPoM698nlrgGL-22" value="&lt;div style=&quot;color: rgb(171 , 178 , 191) ; background-color: rgb(35 , 39 , 46) ; font-family: &amp;#34;droid sans mono&amp;#34; , &amp;#34;monospace&amp;#34; , monospace ; font-size: 14px ; line-height: 19px&quot;&gt;&lt;span style=&quot;color: #e5c07b&quot;&gt;userPerformanceData&lt;/span&gt;&lt;/div&gt;" style="text;html=1;align=center;verticalAlign=middle;resizable=0;points=[];autosize=1;strokeColor=none;fillColor=none;" vertex="1" parent="1">
          <mxGeometry x="1245" y="220" width="180" height="20" as="geometry" />
        </mxCell>
        <mxCell id="EVAwWGZiPoM698nlrgGL-23" value="dataManager.js" style="text;html=1;align=center;verticalAlign=middle;resizable=0;points=[];autosize=1;strokeColor=none;fillColor=none;fontSize=24;fontFamily=Helvetica;fontColor=default;" vertex="1" parent="1">
          <mxGeometry x="1435" y="399" width="180" height="30" as="geometry" />
        </mxCell>
        <mxCell id="EVAwWGZiPoM698nlrgGL-25" style="edgeStyle=orthogonalEdgeStyle;rounded=0;orthogonalLoop=1;jettySize=auto;html=1;exitX=1.006;exitY=0.181;exitDx=0;exitDy=0;exitPerimeter=0;entryX=-0.033;entryY=0.182;entryDx=0;entryDy=0;entryPerimeter=0;strokeColor=#FFFF00;" edge="1" parent="1" source="EVAwWGZiPoM698nlrgGL-7" target="EVAwWGZiPoM698nlrgGL-10">
          <mxGeometry relative="1" as="geometry">
            <mxPoint x="1620" y="265" as="sourcePoint" />
            <mxPoint x="1727" y="265.8800000000001" as="targetPoint" />
          </mxGeometry>
        </mxCell>
        <mxCell id="EVAwWGZiPoM698nlrgGL-26" style="edgeStyle=orthogonalEdgeStyle;rounded=0;orthogonalLoop=1;jettySize=auto;html=1;exitX=1.018;exitY=0.119;exitDx=0;exitDy=0;exitPerimeter=0;entryX=0;entryY=0.121;entryDx=0;entryDy=0;entryPerimeter=0;strokeColor=#FF8000;" edge="1" parent="1" source="EVAwWGZiPoM698nlrgGL-7" target="EVAwWGZiPoM698nlrgGL-10">
          <mxGeometry relative="1" as="geometry">
            <mxPoint x="1622.04" y="250.79999999999995" as="sourcePoint" />
            <mxPoint x="1724.96" y="251.14" as="targetPoint" />
          </mxGeometry>
        </mxCell>
        <mxCell id="EVAwWGZiPoM698nlrgGL-27" style="edgeStyle=orthogonalEdgeStyle;rounded=0;orthogonalLoop=1;jettySize=auto;html=1;exitX=0.994;exitY=0.058;exitDx=0;exitDy=0;exitPerimeter=0;strokeColor=#FF0000;" edge="1" parent="1" source="EVAwWGZiPoM698nlrgGL-7">
          <mxGeometry relative="1" as="geometry">
            <mxPoint x="1622.04" y="250.79999999999995" as="sourcePoint" />
            <mxPoint x="1720" y="120" as="targetPoint" />
          </mxGeometry>
        </mxCell>
        <mxCell id="EVAwWGZiPoM698nlrgGL-28" value="dataFormatter.js" style="text;html=1;align=center;verticalAlign=middle;resizable=0;points=[];autosize=1;strokeColor=none;fillColor=none;fontSize=24;fontFamily=Helvetica;fontColor=default;" vertex="1" parent="1">
          <mxGeometry x="1190" y="540" width="190" height="30" as="geometry" />
        </mxCell>
        <mxCell id="EVAwWGZiPoM698nlrgGL-30" style="edgeStyle=orthogonalEdgeStyle;rounded=0;orthogonalLoop=1;jettySize=auto;html=1;exitX=-0.017;exitY=0.69;exitDx=0;exitDy=0;entryX=1.006;entryY=0.688;entryDx=0;entryDy=0;entryPerimeter=0;exitPerimeter=0;strokeColor=#FF8000;" edge="1" parent="1" source="EVAwWGZiPoM698nlrgGL-10" target="EVAwWGZiPoM698nlrgGL-7">
          <mxGeometry relative="1" as="geometry">
            <mxPoint x="1730" y="591.5" as="sourcePoint" />
            <mxPoint x="1622.04" y="591.8299999999999" as="targetPoint" />
          </mxGeometry>
        </mxCell>
        <mxCell id="EVAwWGZiPoM698nlrgGL-31" style="edgeStyle=orthogonalEdgeStyle;rounded=0;orthogonalLoop=1;jettySize=auto;html=1;exitX=-0.017;exitY=0.627;exitDx=0;exitDy=0;entryX=1.006;entryY=0.625;entryDx=0;entryDy=0;entryPerimeter=0;exitPerimeter=0;fillColor=#FF3333;strokeColor=#FF0000;" edge="1" parent="1" source="EVAwWGZiPoM698nlrgGL-10" target="EVAwWGZiPoM698nlrgGL-7">
          <mxGeometry relative="1" as="geometry">
            <mxPoint x="1727.96" y="551.3" as="sourcePoint" />
            <mxPoint x="1621.02" y="550.96" as="targetPoint" />
          </mxGeometry>
        </mxCell>
        <mxCell id="EVAwWGZiPoM698nlrgGL-32" style="edgeStyle=orthogonalEdgeStyle;rounded=0;orthogonalLoop=1;jettySize=auto;html=1;exitX=0.017;exitY=0.81;exitDx=0;exitDy=0;entryX=1.012;entryY=0.809;entryDx=0;entryDy=0;entryPerimeter=0;exitPerimeter=0;strokeColor=#00FF00;" edge="1" parent="1" source="EVAwWGZiPoM698nlrgGL-10" target="EVAwWGZiPoM698nlrgGL-7">
          <mxGeometry relative="1" as="geometry">
            <mxPoint x="1730" y="591.5" as="sourcePoint" />
            <mxPoint x="1622.04" y="591.8299999999999" as="targetPoint" />
          </mxGeometry>
        </mxCell>
      </root>
    </mxGraphModel>
  </diagram>
</mxfile>
